<svg width="160" height="20" viewBox="0 0 160 20" fill="none" xmlns="http://www.w3.org/2000/svg">
<path d="M15 12.2H4.35999V9.56H18.08C17.72 8.44 16.56 7.4 14.52 7.4H4.55999C2.27999 7.4 0.959991 8.24 0.959991 10.08V12.04C0.959991 13.64 2.31999 14.56 4.31999 14.56H15.08V17.36H0.599991C0.959991 18.88 2.11999 19.68 4.19999 19.68H15.04C17.32 19.68 18.44 18.8 18.44 16.92V14.96C18.44 13.24 17.12 12.32 15 12.2Z" fill="white"/>
<path d="M36.72 7.44H23.6V19.72H27.32V15H37C39.68 15 41.16 14.08 41.16 11.92V10.56C41.12 8.56 39.44 7.44 36.72 7.44ZM37.92 11.36C37.92 12.24 37.76 12.72 36.32 12.72H27.32L27.36 9.52H36.16C37.76 9.52 37.96 10 37.96 10.84V11.36H37.92Z" fill="white"/>
<path d="M51.96 6.92L49.72 9.68L53.52 14.92H45.6L43.64 17H55.08L57.04 19.72H61.44L51.96 6.92Z" fill="white"/>
<path d="M68.56 9.56H82.48C82.12 8.12 80.72 7.4 78.72 7.4H68.32C66.52 7.4 64.8 8.12 64.8 10.08V16.96C64.8 18.92 66.52 19.64 68.32 19.64H78.84C81.24 19.64 82.08 18.96 82.48 17.32H68.56V9.56Z" fill="white"/>
<path d="M91.32 17.4V13.64H98.8V11.56H87.56V19.72H104.16V17.4H91.32Z" fill="white"/>
<path d="M104.72 7.44H87.96V9.6H104.72V7.44Z" fill="white"/>
<path d="M115.04 7.44H109.2L116.08 12.48C117.08 11.8 118.24 11.08 119.28 10.48L115.04 7.44Z" fill="white"/>
<path d="M123.52 13.72C122.52 14.4 121.52 15.16 120.56 15.88L125.76 19.68H131.64L123.52 13.72Z" fill="white"/>
<path d="M159.6 0.280003C127.6 2.12 112.8 15.8 109.48 19.04L108.8 19.68H114.72C130.72 3.64 153.72 0.800003 159.6 0.280003Z" fill="white"/>
</svg>
